<?xml version="1.0" standalone="no"?>
<!DOCTYPE svg PUBLIC "-//W3C//DTD SVG 20010904//EN"
 "http://www.w3.org/TR/2001/REC-SVG-20010904/DTD/svg10.dtd">
<svg version="1.0" xmlns="http://www.w3.org/2000/svg"
 width="16.000000pt" height="16.000000pt" viewBox="0 0 16.000000 16.000000"
 preserveAspectRatio="xMidYMid meet">
<metadata>
Created by potrace 1.11, written by Peter Selinger 2001-2013
</metadata>
<g transform="translate(0.000000,16.000000) scale(0.003125,-0.003125)"
fill="#000000" stroke="none">
<path d="M0 2560 l0 -2560 2560 0 2560 0 0 2560 0 2560 -2560 0 -2560 0 0
-2560z m1353 -818 c24 -26 31 -93 17 -154 -7 -29 -52 -159 -101 -288 -97 -264
-119 -331 -119 -372 0 -32 9 -34 53 -12 121 63 303 207 641 507 253 224 303
250 321 166 12 -53 -3 -90 -85 -219 -130 -202 -180 -320 -180 -429 0 -163 178
-53 734 453 156 142 223 196 242 196 20 0 35 -36 37 -83 1 -31 -15 -78 -60
-182 -82 -187 -98 -239 -98 -312 0 -76 23 -112 83 -131 92 -30 276 38 493 184
143 95 241 178 366 307 l101 106 26 -39 26 -39 -51 -60 c-161 -194 -536 -449
-777 -530 -316 -107 -472 25 -392 331 11 41 23 83 27 94 9 23 -2 15 -246 -174
-463 -360 -564 -396 -617 -216 -24 83 -15 194 25 309 30 87 38 125 24 125 -9
0 -49 -31 -298 -230 -298 -237 -423 -317 -475 -303 -10 3 -30 18 -46 34 -21
22 -28 41 -32 81 -5 63 12 119 128 413 80 203 108 290 98 300 -13 13 -42 -12
-103 -89 -112 -141 -106 -136 -174 -136 l-60 0 92 113 c206 252 325 340 380
279z m2934 -649 c49 -65 -1 -209 -91 -264 -80 -49 -186 -2 -186 83 0 62 58
160 113 190 55 30 139 25 164 -9z"/>
</g>
</svg>
